<?xml version="1.0" standalone="no"?>
<!DOCTYPE svg PUBLIC "-//W3C//DTD SVG 20010904//EN"
 "http://www.w3.org/TR/2001/REC-SVG-20010904/DTD/svg10.dtd">
<svg version="1.0" xmlns="http://www.w3.org/2000/svg"
 width="300.000000pt" height="298.000000pt" viewBox="0 0 300.000000 298.000000"
 preserveAspectRatio="xMidYMid meet">
<metadata>
Created by potrace 1.10, written by Peter Selinger 2001-2011
</metadata>
<g transform="translate(0.000000,298.000000) scale(0.100000,-0.100000)"
fill="#000000" stroke="none">
<path d="M30 2833 c0 -80 3 -143 6 -140 10 9 11 287 2 287 -4 0 -8 -66 -8
-147z"/>
<path d="M75 2958 c-3 -13 -4 -75 -3 -139 l3 -115 445 53 c245 29 453 53 463
53 15 0 17 11 17 85 0 54 -4 85 -11 85 -6 0 -8 -9 -4 -20 5 -15 2 -20 -11 -20
-15 0 -16 -2 -2 -17 15 -18 18 -69 5 -89 -4 -7 -30 -14 -59 -18 -145 -16 -700
-83 -775 -92 -50 -6 -47 -16 -44 154 2 66 -1 102 -8 102 -6 0 -13 -10 -16 -22z"/>
<path d="M1041 2894 c-1 -49 1 -84 7 -81 10 7 13 167 3 167 -4 0 -8 -39 -10
-86z"/>
<path d="M1090 2928 c0 -29 -3 -64 -7 -77 l-6 -24 72 7 c106 9 223 28 217 34
-5 4 -110 -7 -230 -24 l-38 -6 6 71 c4 46 3 71 -4 71 -5 0 -10 -23 -10 -52z"/>
<path d="M2080 2969 c0 -11 -71 -16 -77 -6 -3 5 -8 5 -12 -1 -3 -5 -30 -13
-60 -17 -41 -6 -52 -4 -46 5 4 7 -4 5 -17 -4 -16 -11 -52 -17 -105 -18 -45 -2
-79 -6 -77 -9 2 -4 -29 -10 -69 -14 -39 -4 -90 -10 -112 -15 l-40 -8 35 0 c19
-1 204 21 410 48 316 41 359 48 273 47 -57 -1 -103 -5 -103 -8z"/>
<path d="M2524 2943 l-201 -26 -12 -251 c-7 -138 -15 -259 -17 -268 -3 -10 -1
-18 4 -18 5 0 15 113 22 250 8 145 18 257 24 266 8 11 68 21 221 39 247 30
264 32 205 33 -25 0 -135 -11 -246 -25z"/>
<path d="M2840 2940 c-80 -10 -218 -26 -307 -36 l-162 -18 -6 -60 c-3 -34 -14
-218 -25 -411 -12 -192 -29 -487 -40 -654 -11 -168 -18 -306 -17 -308 7 -6
707 -7 707 0 0 4 -5 7 -11 7 -8 0 -9 14 -4 48 4 26 10 160 14 298 l6 251 -25
-7 c-14 -4 -35 -6 -47 -4 -18 3 -23 -1 -23 -19 0 -15 3 -18 9 -9 9 16 63 11
69 -6 2 -8 -14 -12 -52 -12 -42 0 -56 -4 -56 -14 0 -8 -6 -17 -12 -19 -7 -3
17 -6 55 -6 48 -1 67 -5 67 -14 0 -7 -10 -112 -21 -233 -12 -120 -21 -227 -21
-236 1 -17 -14 -18 -174 -18 -171 0 -175 1 -169 20 4 11 2 20 -4 20 -6 0 -11
-9 -11 -20 0 -16 -7 -20 -31 -20 -26 0 -29 3 -24 20 4 11 2 20 -4 20 -6 0 -11
-9 -11 -21 0 -17 -5 -20 -32 -17 -25 2 -34 9 -39 28 l-7 25 -1 -25 c-1 -24 -5
-25 -66 -28 l-65 -3 0 48 c0 47 22 382 40 618 5 66 11 172 14 235 3 63 8 167
12 231 l7 117 126 12 c69 7 153 16 186 20 115 15 -12 11 -160 -5 -77 -8 -142
-15 -145 -15 -3 0 -4 33 -2 74 l4 74 56 10 c55 9 59 8 134 -29 77 -39 123 -47
163 -28 14 6 5 7 -27 3 -50 -6 -133 20 -121 39 3 6 1 7 -5 3 -6 -4 -23 -1 -38
7 -23 12 -10 15 158 35 261 31 287 29 274 -22 -3 -14 -11 -26 -16 -26 -6 0
-10 -4 -10 -10 0 -5 9 -10 20 -10 18 0 20 7 20 60 0 33 -1 59 -2 59 -2 -1 -68
-10 -148 -19z"/>
<path d="M2105 2890 l-40 -7 35 -1 c19 0 58 3 85 8 l50 7 -45 0 c-25 0 -63 -3
-85 -7z"/>
<path d="M2025 2845 c-104 -13 -248 -31 -319 -39 l-129 -16 -23 23 c-27 27
-85 47 -136 47 -42 0 -95 -33 -123 -77 -19 -29 -24 -31 -105 -37 -47 -4 -91
-10 -97 -14 -8 -5 -15 -86 -21 -257 -5 -138 -8 -252 -6 -254 10 -11 13 21 21
246 5 134 12 246 16 249 3 3 42 11 87 16 68 9 84 8 91 -3 6 -11 9 -8 9 9 0 14
6 22 17 22 9 0 13 3 10 7 -4 3 11 19 34 36 34 25 47 29 82 25 96 -11 147 -62
162 -161 3 -27 13 -51 21 -54 8 -3 14 -12 14 -20 0 -8 -4 -11 -10 -8 -5 3 -10
-3 -10 -14 0 -26 -39 -68 -49 -53 -14 24 -26 -6 -26 -68 0 -41 5 -70 14 -79 8
-9 11 -27 8 -47 -8 -48 -58 -143 -87 -166 l-25 -20 -42 49 c-39 44 -92 157
-80 169 2 3 17 -6 31 -19 20 -19 36 -24 66 -23 71 4 68 23 -4 31 -69 7 -90 23
-115 86 -5 13 -10 18 -10 11 -1 -7 4 -23 10 -34 6 -12 12 -48 13 -82 3 -73 18
-105 85 -175 l51 -53 19 23 c56 67 72 90 91 135 20 46 23 68 18 124 -1 14 -1
49 0 78 2 48 4 52 26 52 42 0 64 100 26 120 -12 7 -20 21 -20 38 0 15 -5 44
-11 65 -6 22 -9 41 -7 43 5 4 605 74 641 74 25 0 27 -3 21 -27 -4 -16 -14 -36
-22 -45 -14 -16 -13 -18 1 -18 20 0 21 -18 3 -42 -8 -11 -26 -18 -45 -18 -68
0 -68 -1 -76 -200 -4 -99 -7 -183 -6 -187 2 -12 131 -9 131 2 0 6 -25 9 -61 7
l-61 -4 6 139 c9 201 13 220 39 227 12 3 39 6 60 6 36 0 37 1 37 38 0 20 3 61
6 90 l7 52 -29 -1 c-16 -1 -114 -12 -219 -24z"/>
<path d="M1690 2840 c-41 -6 -42 -7 -10 -8 19 0 58 3 85 8 47 7 48 7 10 7 -22
0 -60 -3 -85 -7z"/>
<path d="M2979 2808 c-1 -7 -1 -16 0 -20 0 -5 -6 -8 -14 -8 -7 0 -19 -8 -25
-17 -10 -15 -11 -14 -7 10 2 15 0 27 -4 27 -5 0 -9 -15 -9 -32 0 -18 -2 -71
-5 -118 -3 -61 -2 -76 5 -55 6 20 7 -15 4 -102 l-5 -133 35 0 c20 0 36 4 36
10 0 5 -13 7 -31 3 l-32 -6 6 44 c3 24 9 107 12 184 7 157 10 175 31 175 8 0
14 10 14 25 0 25 -9 35 -11 13z m-50 -172 c-9 -8 -10 -3 -5 23 3 18 7 45 8 60
1 14 3 4 5 -23 3 -30 0 -53 -8 -60z"/>
<path d="M1058 2763 c-13 -3 -17 -23 -22 -106 -6 -110 -16 -369 -16 -428 0
-29 -5 -38 -21 -42 -21 -6 -21 -5 -14 241 3 136 8 257 11 270 3 16 0 22 -13
22 -52 -1 -903 -97 -908 -102 -6 -5 -25 -1107 -20 -1115 2 -4 159 -10 428 -19
l217 -6 0 -55 c0 -44 7 -67 40 -127 27 -49 40 -85 40 -111 0 -87 42 -244 68
-253 15 -5 16 30 1 45 -7 7 -13 33 -15 59 -2 26 -11 58 -20 71 -8 14 -17 48
-20 76 -4 50 -24 106 -48 137 -7 8 -18 34 -26 57 -12 39 -11 50 9 115 13 40
29 106 36 147 8 40 16 75 19 78 3 3 12 0 21 -7 9 -7 18 -11 21 -8 2 3 -7 13
-21 22 -30 20 -31 35 -5 78 14 23 20 51 20 91 0 52 -2 59 -26 69 -20 10 -27 9
-34 -2 -5 -8 -9 -96 -10 -197 -1 -168 -3 -188 -23 -229 l-22 -45 -79 3 -79 3
7 226 c6 196 5 227 -8 232 -8 3 -16 21 -18 39 l-3 33 -22 -22 c-29 -29 -32
-58 -5 -44 38 20 42 -2 42 -234 0 -122 -2 -224 -5 -226 -2 -3 -19 -3 -37 -1
l-33 4 0 146 c0 134 -2 151 -23 190 -37 69 -127 101 -191 67 -51 -26 -64 -72
-69 -245 l-4 -155 -39 3 -39 4 0 107 c0 76 -3 102 -11 91 -6 -9 -7 -50 -3
-107 4 -69 3 -93 -6 -93 -9 0 -11 120 -5 523 3 287 8 534 11 550 4 17 13 29
27 32 12 2 139 16 282 30 143 14 333 34 422 43 l162 18 -3 -76 c-1 -41 -6 -81
-10 -89 -6 -9 -5 -12 1 -8 10 6 6 -171 -3 -182 -3 -3 -38 3 -80 13 -41 10 -77
16 -79 14 -3 -2 29 -13 70 -23 70 -17 107 -37 88 -48 -4 -2 -69 11 -143 30
-74 18 -148 36 -165 39 -16 3 -33 11 -37 17 -5 8 -8 7 -8 -3 0 -11 46 -26 180
-60 l180 -44 -2 -62 c-2 -46 0 -60 10 -57 6 3 12 0 12 -7 0 -6 4 -9 9 -6 5 3
12 -1 15 -10 6 -16 26 -11 26 7 0 6 -4 7 -10 4 -5 -3 -10 3 -10 14 0 13 7 21
18 21 13 0 14 2 4 9 -11 6 -12 30 -8 107 3 55 8 175 12 269 3 93 7 172 10 174
2 3 23 8 47 12 40 6 40 7 7 7 -19 0 -42 -2 -52 -5z m-256 -863 c-4 -3 -8 -21
-10 -40 -4 -55 -11 -69 -24 -46 -7 13 -8 21 -1 23 6 2 8 25 6 53 -3 49 -3 50
17 33 11 -9 16 -20 12 -23z m-432 -20 c10 0 22 -9 25 -20 3 -11 10 -20 15 -20
17 0 31 -72 36 -177 5 -130 0 -163 -25 -156 -15 4 -17 15 -15 81 6 146 6 160
-6 184 -24 45 -42 58 -82 58 -36 0 -39 -3 -62 -50 -13 -27 -21 -50 -17 -50 4
0 7 -48 7 -107 -1 -105 -2 -108 -24 -111 l-24 -4 6 122 c3 66 8 125 11 131 4
5 2 9 -3 9 -16 0 9 68 35 96 18 19 30 24 53 20 16 -2 33 1 37 7 5 8 8 8 11 -1
2 -7 12 -12 22 -12z m-8 -87 c26 -31 29 -54 22 -175 l-7 -118 -53 0 -54 0 0
136 c0 74 5 144 10 155 13 24 61 25 82 2z"/>
<path d="M2785 2759 c-31 -6 -26 -7 27 -4 l66 4 -4 -57 c-3 -31 -7 -72 -9 -91
-2 -19 0 -30 4 -25 5 5 11 48 14 97 l5 87 -32 -1 c-17 -1 -49 -5 -71 -10z"/>
<path d="M2095 2576 c-4 -74 -5 -140 -3 -147 2 -7 9 53 14 134 5 81 6 147 3
147 -4 0 -10 -60 -14 -134z"/>
<path d="M1326 2675 c-8 -8 -19 -15 -25 -15 -13 0 -13 -7 -1 -35 5 -11 9 -14
9 -7 1 6 6 12 12 12 6 0 9 -7 5 -15 -4 -10 1 -15 14 -15 13 0 18 5 14 15 -4
10 0 15 11 15 27 0 11 59 -17 60 -4 0 -13 -7 -22 -15z"/>
<path d="M1460 2682 c0 -8 -10 -22 -21 -31 -19 -15 -20 -20 -8 -39 20 -31 29
-27 19 8 -5 17 -5 28 -1 26 4 -3 13 -1 20 3 10 7 11 13 2 27 -6 12 -11 14 -11
6z"/>
<path d="M32 2598 l2 -53 3 47 c3 33 9 48 21 51 12 3 11 5 -5 6 -21 1 -23 -3
-21 -51z"/>
<path d="M1246 2614 c-15 -38 3 -124 26 -124 5 0 4 8 -1 19 -6 10 -8 21 -5 24
3 3 0 14 -7 25 -13 21 -5 57 11 47 6 -3 7 1 4 9 -8 20 -20 20 -28 0z"/>
<path d="M2705 2567 c-4 -15 -5 -31 -1 -34 3 -4 6 5 7 18 l1 24 8 -25 c5 -15
8 -18 9 -8 1 9 7 19 14 21 7 4 6 6 -5 6 -9 1 -18 7 -21 14 -2 6 -8 -1 -12 -16z"/>
<path d="M2618 2568 c-2 -6 -15 -12 -29 -14 -13 -1 -27 -3 -31 -3 -3 -1 -9 -9
-11 -18 -4 -17 -5 -17 -6 -1 -1 13 -8 17 -26 16 -14 -1 -25 -5 -25 -8 1 -29
70 -41 70 -11 0 13 2 13 9 2 7 -11 9 -11 14 0 4 10 6 10 6 2 2 -25 29 -13 40
17 5 17 6 30 1 30 -4 0 -10 -5 -12 -12z"/>
<path d="M2664 2564 c3 -8 2 -12 -3 -9 -5 3 -12 1 -16 -5 -3 -5 0 -10 9 -10 8
0 17 -6 19 -12 3 -7 6 2 6 20 1 17 -4 32 -10 32 -6 0 -8 -7 -5 -16z"/>
<path d="M2236 2528 c-5 -21 -5 -46 0 -55 6 -15 8 -13 12 10 2 15 2 39 0 55
-4 25 -5 24 -12 -10z"/>
<path d="M2406 2538 c-9 -34 -7 -45 4 -28 9 13 11 13 21 0 9 -13 10 -12 5 2
-3 10 -1 20 4 23 6 4 10 -1 10 -9 0 -9 8 -14 20 -13 11 1 18 6 16 12 -2 5 -8
9 -14 8 -5 -1 -16 4 -22 12 -18 22 -37 18 -44 -7z"/>
<path d="M27 2513 c-3 -14 -6 -184 -6 -377 -1 -193 -4 -418 -6 -499 -3 -81 -1
-147 4 -147 5 0 9 165 10 368 1 202 4 438 7 525 4 153 2 185 -9 130z"/>
<path d="M1364 2529 c-3 -5 11 -9 30 -9 20 0 36 -4 36 -9 0 -5 6 -11 14 -14
10 -4 14 0 13 14 -1 22 0 21 -50 24 -21 1 -40 -2 -43 -6z"/>
<path d="M114 2508 c-6 -10 -15 -7 191 -58 94 -22 187 -45 208 -51 l37 -10 0
-139 c0 -77 -2 -140 -3 -140 -2 0 -94 18 -205 40 -191 38 -241 46 -231 35 4
-4 306 -63 415 -82 l32 -5 7 141 c8 156 5 166 -48 174 -25 4 -170 40 -327 82
-8 2 -21 4 -28 4 -7 1 -11 5 -8 9 2 4 -4 8 -15 8 -11 0 -23 -4 -25 -8z"/>
<path d="M1286 2494 c-4 -14 -5 -28 -4 -30 8 -7 26 12 30 30 5 30 -19 30 -26
0z"/>
<path d="M1656 2512 c-3 -5 35 -21 85 -36 49 -15 87 -31 84 -37 -8 -11 5 -12
24 0 10 6 4 12 -23 22 -20 7 -36 17 -36 21 0 4 -13 8 -30 8 -16 0 -30 4 -30 8
0 4 -8 8 -17 8 -10 1 -25 4 -34 8 -10 4 -20 3 -23 -2z"/>
<path d="M1971 2483 c-6 -10 -11 -13 -11 -8 0 11 -20 -15 -20 -27 0 -18 28 -6
40 17 15 29 7 46 -9 18z"/>
<path d="M103 2435 c0 -33 2 -45 4 -27 2 18 2 45 0 60 -2 15 -4 0 -4 -33z"/>
<path d="M1333 2463 c-8 -20 4 -28 20 -15 10 9 17 8 26 -1 10 -9 11 -8 6 5 -6
14 0 16 39 15 30 -1 46 -6 46 -14 0 -7 7 -10 15 -7 8 4 15 12 15 19 0 18 -160
16 -167 -2z"/>
<path d="M1655 2422 c-36 -3 -44 -6 -30 -11 11 -5 34 -5 51 -1 18 4 52 7 77 6
25 0 43 2 40 7 -4 7 -46 7 -138 -1z"/>
<path d="M1386 2412 c-8 -13 45 -22 64 -11 13 7 13 8 0 9 -8 0 -25 3 -36 6
-12 3 -24 1 -28 -4z"/>
<path d="M2840 2371 c-8 -5 -112 -14 -230 -21 -118 -7 -224 -17 -235 -22 -14
-6 -6 -7 25 -4 25 3 138 11 253 17 158 10 207 16 207 26 0 15 0 15 -20 4z"/>
<path d="M2281 2168 c-7 -112 -16 -268 -21 -348 -18 -282 -23 -395 -16 -389 6
5 34 425 52 759 3 74 8 145 9 158 1 12 -1 22 -5 22 -3 0 -12 -91 -19 -202z"/>
<path d="M1253 2285 c-16 -11 -28 -12 -58 -4 -20 6 -39 8 -43 5 -3 -3 2 -6 11
-6 10 0 17 -5 17 -11 0 -5 5 -7 10 -4 12 7 42 -20 33 -29 -10 -10 -25 -7 -18
4 3 6 0 10 -8 10 -8 0 -17 -7 -20 -14 -4 -10 -1 -13 9 -9 7 3 14 0 14 -6 0 -7
16 0 35 15 19 14 33 30 30 34 -3 5 1 10 7 13 7 2 10 7 7 10 -3 4 -14 0 -26 -8z"/>
<path d="M2968 2292 c8 -5 11 -23 8 -50 -2 -23 0 -45 5 -48 5 -3 9 20 9 50 0
47 -3 56 -17 56 -13 0 -15 -3 -5 -8z"/>
<path d="M2811 2273 c-12 -13 -11 -14 7 -9 15 5 22 2 25 -11 3 -12 5 -8 6 10
1 30 -16 35 -38 10z"/>
<path d="M1603 2263 c-4 -10 2 -23 15 -34 14 -11 22 -28 22 -48 0 -17 5 -31
11 -31 7 0 10 14 7 35 -2 19 1 37 7 39 5 2 -2 5 -17 5 -22 1 -28 6 -28 24 0
13 3 17 8 11 4 -6 23 -20 42 -30 76 -41 78 -44 72 -106 -3 -43 -8 -55 -18 -51
-8 3 -14 -1 -14 -11 0 -9 8 -16 20 -16 17 0 20 7 21 48 1 26 4 58 8 72 7 25 7
25 19 -7 6 -18 16 -33 21 -33 15 0 14 37 -1 43 -7 3 -3 6 9 6 18 1 23 -6 28
-44 14 -89 -3 -228 -51 -424 -14 -58 -25 -116 -25 -130 2 -50 4 -61 14 -61 5
0 6 12 3 26 -5 17 -3 23 4 19 5 -3 10 1 10 9 0 9 -6 16 -12 16 -8 0 -9 3 -3 8
6 4 11 21 11 37 2 52 35 183 50 202 14 17 15 16 9 -12 -3 -16 -8 -59 -11 -95
-3 -36 -10 -75 -16 -87 -7 -14 -9 -75 -6 -175 2 -84 1 -137 -3 -118 -7 37 -7
35 -13 -32 -1 -6 4 -13 11 -15 14 -5 19 14 28 100 l7 59 89 -7 c61 -5 89 -3
89 4 0 7 -25 11 -64 11 -53 0 -65 3 -69 18 -4 16 -5 16 -6 0 -1 -11 -9 -18
-21 -18 -17 0 -20 7 -21 55 -2 65 -2 66 -13 83 -4 7 -5 16 -2 19 3 4 6 1 6 -6
0 -7 5 -9 10 -6 6 3 10 36 10 73 l0 67 36 -50 c19 -27 43 -53 52 -56 9 -4 35
-42 57 -85 22 -44 44 -82 48 -85 5 -3 3 -37 -4 -75 -13 -77 -29 -97 -117 -153
-29 -19 -60 -47 -68 -63 -21 -41 -9 -49 13 -9 17 30 48 49 60 37 3 -3 -1 -20
-10 -38 -11 -22 -12 -34 -5 -37 14 -5 26 16 33 59 5 25 19 45 47 67 l40 33 19
-24 c22 -28 24 -52 5 -59 -7 -3 -16 -23 -19 -44 -4 -21 -16 -46 -27 -56 -12
-10 -18 -22 -15 -27 8 -14 -34 -33 -53 -24 -17 8 -28 11 -49 13 -6 0 -9 10 -6
21 7 26 -7 25 -41 -1 -15 -12 -25 -29 -25 -42 2 -22 2 -22 6 1 4 22 14 28 26
15 9 -8 108 -43 124 -43 20 0 83 101 90 143 3 22 14 44 24 50 22 14 25 33 5
40 -7 3 -24 20 -37 39 -15 21 -17 28 -6 19 15 -12 17 -11 17 4 0 24 22 13 47
-24 l21 -32 27 35 c46 60 44 98 -11 264 -26 81 -49 148 -50 150 -1 2 -22 -11
-46 -28 -24 -17 -56 -32 -72 -33 -25 -2 -32 4 -57 53 -16 30 -29 47 -29 37 0
-10 -4 -15 -10 -12 -5 3 -10 15 -10 26 0 12 4 17 11 13 8 -5 8 -1 0 14 -6 11
-11 29 -11 38 0 10 -7 25 -16 35 -15 17 -12 62 4 56 4 -1 8 2 10 7 1 6 -5 11
-14 12 -24 4 -26 10 -9 27 18 19 19 34 3 40 -8 4 -7 6 3 6 10 1 19 13 23 32 7
35 1 49 -20 49 -8 0 -14 10 -14 25 0 16 6 25 15 25 8 0 15 4 15 9 0 15 -24 28
-82 45 -31 9 -58 20 -60 24 -3 10 -105 62 -119 62 -5 0 -12 -7 -16 -17z m486
-606 c6 -8 18 -46 27 -85 9 -40 21 -72 26 -72 6 0 8 -9 5 -20 -3 -11 -1 -18 4
-14 5 3 9 -14 10 -38 0 -24 2 -51 4 -60 5 -28 -17 -39 -53 -26 -36 14 -52 48
-41 93 12 52 10 62 -24 111 -50 74 -52 83 -17 96 17 5 30 14 30 19 0 13 16 11
29 -4z"/>
<path d="M2129 2243 l-27 -4 -7 -155 c-4 -85 -5 -158 -1 -161 3 -4 7 18 7 48
1 30 4 99 8 154 l6 99 39 8 c54 11 64 0 60 -68 -2 -33 1 -52 6 -49 6 4 10 35
10 71 l0 64 -37 -1 c-21 -1 -50 -4 -64 -6z"/>
<path d="M1123 2215 c-3 -9 -3 -19 1 -22 3 -4 6 2 6 13 1 18 2 18 19 -3 10
-12 22 -19 25 -15 4 3 5 -28 3 -71 l-5 -77 26 1 c25 1 25 1 5 7 -16 5 -20 11
-13 21 5 9 5 22 -1 32 -5 10 -7 24 -5 31 13 42 16 69 6 63 -5 -3 -10 -1 -10 5
0 6 -4 8 -10 5 -5 -3 -10 1 -10 9 0 21 -29 21 -37 1z"/>
<path d="M1314 2208 c-5 -7 -16 -26 -24 -42 -15 -26 -39 -37 -32 -14 1 5 -2 7
-8 3 -8 -5 -7 -12 2 -23 7 -10 13 -18 14 -20 5 -8 64 30 64 40 0 6 9 3 20 -7
19 -17 19 -16 -1 26 -26 54 -25 53 -35 37z"/>
<path d="M2073 2145 c0 -38 2 -53 4 -32 2 20 2 52 0 70 -2 17 -4 1 -4 -38z"/>
<path d="M1536 2168 c-9 -17 -16 -37 -16 -44 0 -8 -16 -20 -35 -28 l-35 -15 0
-180 c0 -169 6 -208 28 -186 4 4 7 63 8 131 0 95 -3 124 -13 124 -9 0 -13 15
-13 44 0 36 5 47 25 60 25 16 25 16 25 -14 0 -26 3 -30 28 -29 23 2 24 2 5 6
-28 5 -30 33 -3 33 25 0 27 30 3 30 -15 1 -14 4 7 21 l24 21 22 -27 c16 -20
24 -24 29 -15 6 9 4 11 -5 5 -9 -6 -10 -1 -5 16 4 17 4 20 -3 10 -8 -11 -13
-4 -23 27 -15 50 -32 53 -53 10z m-69 -400 c-2 -29 -3 -8 -3 47 0 55 1 79 3
53 2 -26 2 -71 0 -100z"/>
<path d="M2958 2159 c-16 -11 -28 -25 -28 -31 0 -6 8 -4 18 5 10 10 24 17 30
17 7 0 12 7 12 15 0 19 1 19 -32 -6z"/>
<path d="M1910 2155 c0 -3 11 -18 25 -33 14 -15 25 -32 25 -38 0 -6 -11 -21
-25 -34 -27 -25 -32 -45 -13 -56 6 -4 8 -3 5 3 -6 10 31 79 38 71 3 -2 20 -47
38 -99 19 -52 43 -115 55 -141 l20 -46 -22 -23 -21 -22 28 17 c15 9 27 13 26
9 -3 -18 2 -33 10 -33 11 0 -3 55 -18 74 -6 7 -8 23 -5 37 4 16 3 20 -3 11
-11 -15 -35 52 -26 74 3 8 1 14 -5 14 -12 0 -44 86 -44 119 0 18 -2 20 -9 10
-7 -11 -9 -11 -9 -1 0 16 -52 91 -62 92 -5 0 -8 -2 -8 -5z"/>
<path d="M110 2140 c0 -12 -2 -11 234 -55 198 -37 210 -41 201 -56 -3 -5 0 -6
8 -3 8 3 20 -2 27 -11 10 -12 10 -21 1 -43 l-12 -27 26 28 c26 28 27 28 49 10
l21 -18 -19 23 c-11 12 -25 22 -33 22 -7 0 -22 9 -33 20 -21 21 -27 35 -10 25
6 -3 10 -1 10 4 0 6 -10 11 -22 11 -13 0 -117 18 -233 40 -116 22 -211 40
-212 40 -2 0 -3 -4 -3 -10z"/>
<path d="M1050 2095 c0 -8 6 -15 13 -15 7 0 8 -3 2 -8 -13 -9 -17 -32 -6 -32
11 0 21 38 14 56 -7 19 -23 18 -23 -1z"/>
<path d="M606 2089 c3 -5 13 -9 23 -9 10 0 71 -12 135 -26 94 -20 121 -23 130
-13 8 9 8 10 0 6 -10 -6 -117 13 -277 47 -9 2 -15 0 -11 -5z"/>
<path d="M1409 2083 c-7 -65 1 -204 11 -198 6 4 8 10 6 14 -3 4 -6 49 -7 99
-1 51 -3 92 -5 92 -2 0 -4 -3 -5 -7z"/>
<path d="M98 1964 c-2 -64 0 -118 5 -121 4 -2 7 50 7 116 0 67 -2 121 -4 121
-3 0 -6 -52 -8 -116z"/>
<path d="M2210 2035 c-7 -86 -7 -96 2 -87 5 5 7 36 5 68 -3 49 -4 52 -7 19z"/>
<path d="M602 2049 c4 -12 32 -20 158 -44 71 -14 110 -17 110 -8 0 6 -26 14
-57 18 -32 4 -64 9 -73 11 -8 2 -35 8 -60 14 -25 6 -53 13 -64 16 -12 4 -17 2
-14 -7z"/>
<path d="M925 2030 c-3 -11 -10 -20 -15 -20 -11 0 -43 -85 -38 -102 3 -7 21
20 40 59 20 40 32 75 28 78 -5 3 -11 -4 -15 -15z"/>
<path d="M2503 2032 c-66 -2 -83 -6 -83 -18 0 -11 4 -12 19 -4 11 5 58 10 105
10 47 0 86 4 86 9 0 5 -10 8 -22 7 -13 0 -60 -2 -105 -4z"/>
<path d="M2646 2028 c6 -9 143 -3 153 7 3 4 -31 5 -76 4 -46 -1 -80 -6 -77
-11z"/>
<path d="M1056 2014 c-7 -18 0 -34 15 -34 12 0 12 37 0 44 -5 3 -12 -1 -15
-10z"/>
<path d="M1169 1979 c-1 -27 -2 -55 -3 -61 -1 -7 9 -14 22 -16 13 -2 22 2 22
10 0 7 3 23 6 36 5 18 2 22 -15 22 -14 0 -21 6 -21 20 0 12 7 20 17 20 19 0 9
13 -12 16 -11 2 -15 -10 -16 -47z"/>
<path d="M1234 2019 c-2 -4 16 -9 41 -11 25 -2 45 0 45 3 0 9 -80 16 -86 8z"/>
<path d="M1014 1995 c1 -17 -5 -38 -13 -49 -15 -18 -15 -18 7 -5 23 14 28 43
12 69 -7 11 -8 7 -6 -15z"/>
<path d="M1508 1876 c-2 -78 -2 -143 0 -145 9 -16 14 20 13 88 -1 75 0 79 19
74 17 -5 20 -1 20 31 0 29 -4 36 -20 36 -29 0 -27 38 3 42 20 3 20 4 -5 9
l-27 6 -3 -141z"/>
<path d="M975 1990 c-17 -19 -17 -20 -1 -20 11 0 15 -5 10 -12 -4 -7 -3 -9 1
-5 9 8 19 57 12 57 -2 0 -12 -9 -22 -20z"/>
<path d="M1721 1983 c0 -25 1 -26 9 -8 6 15 9 4 12 -40 l4 -60 2 68 c2 54 -1
67 -13 67 -10 0 -15 -9 -14 -27z"/>
<path d="M1330 1976 c0 -14 5 -28 10 -31 6 -4 10 7 10 24 0 17 -4 31 -10 31
-5 0 -10 -11 -10 -24z"/>
<path d="M2680 1990 c-63 -4 -147 -8 -187 -9 -80 -1 -77 2 -92 -91 -4 -28 -5
-53 -1 -55 4 -3 3 -25 -2 -49 -5 -24 -7 -66 -5 -92 3 -46 4 -45 5 14 1 38 6
62 13 62 8 0 9 17 4 55 -3 31 -4 68 0 84 l6 28 202 8 c111 4 205 9 209 11 13
8 -5 44 -21 42 -9 -1 -68 -5 -131 -8z"/>
<path d="M1050 1948 c0 -43 17 -53 22 -14 3 25 0 36 -9 36 -7 0 -13 -10 -13
-22z"/>
<path d="M1086 1948 c-6 -25 -8 -204 -2 -197 4 5 16 219 11 219 -1 0 -5 -10
-9 -22z"/>
<path d="M1111 1953 c0 -10 4 -27 9 -38 8 -19 9 -19 9 3 1 13 5 20 11 17 6 -3
10 3 10 14 0 14 -6 21 -20 21 -13 0 -20 -6 -19 -17z"/>
<path d="M1267 1963 c33 -3 43 -8 46 -26 4 -18 5 -17 6 6 1 26 -1 27 -46 25
l-48 -1 42 -4z"/>
<path d="M1373 1935 c3 -46 17 -46 17 0 0 19 -4 35 -9 35 -6 0 -9 -16 -8 -35z"/>
<path d="M950 1926 c0 -19 5 -38 11 -41 17 -11 21 2 9 27 -11 22 -10 22 4 4
19 -23 20 -17 4 19 -16 35 -28 31 -28 -9z"/>
<path d="M1787 1952 c-3 -4 -8 -45 -12 -92 -7 -83 -19 -152 -50 -293 -9 -41
-12 -75 -6 -84 6 -12 10 -9 19 15 8 22 7 32 0 34 -8 3 -3 41 16 119 15 63 29
139 32 169 5 68 13 103 24 110 4 3 2 11 -6 17 -7 7 -15 9 -17 5z"/>
<path d="M604 1930 c0 -9 8 -17 18 -17 11 -1 18 5 18 17 0 12 -7 18 -18 17
-10 0 -18 -8 -18 -17z"/>
<path d="M1643 1915 c-19 -21 -16 -45 5 -45 15 0 18 6 14 30 -2 17 -5 30 -6
30 0 -1 -7 -7 -13 -15z"/>
<path d="M997 1893 c-19 -37 -31 -103 -19 -103 5 0 3 -17 -5 -37 -7 -21 -16
-46 -20 -55 -3 -10 -13 -18 -22 -17 -10 0 -11 2 -3 6 6 2 12 11 12 19 0 8 4
14 9 14 5 0 7 9 4 20 -3 11 0 20 6 20 6 0 11 5 11 10 0 25 -19 6 -40 -41 -20
-41 -28 -49 -45 -45 -18 5 -19 4 -2 -8 24 -19 22 -29 -23 -94 -22 -32 -39 -69
-38 -83 2 -39 -1 -51 -12 -44 -12 7 -14 -58 -2 -69 4 -4 7 -11 8 -14 0 -7 16
-44 36 -88 6 -12 22 -28 36 -35 35 -19 69 -77 77 -132 7 -42 5 -48 -24 -76
-27 -27 -30 -33 -19 -51 15 -24 41 -35 46 -21 2 6 8 8 13 5 6 -4 10 17 10 53
-1 32 -1 72 -1 88 0 17 -2 39 -4 50 -3 11 -5 24 -5 28 -1 5 -27 36 -60 70
l-58 62 -6 101 c-5 82 -3 105 9 120 14 18 15 18 5 -3 -6 -12 -11 -30 -11 -40
0 -9 16 14 34 52 38 76 67 127 78 135 3 3 20 23 37 44 l31 39 1 -99 c2 -235 0
-290 -10 -315 -12 -33 -24 -204 -16 -230 4 -11 11 -17 16 -13 9 5 11 30 9 138
-1 30 4 52 12 57 10 7 9 9 -4 9 -16 0 -15 5 1 68 21 74 35 159 26 151 -3 -4
-10 -26 -15 -50 -8 -38 -8 -34 -4 26 3 39 8 78 11 89 3 10 1 16 -4 13 -5 -3
-9 6 -9 21 -2 136 -5 162 -20 177 -14 13 -19 14 -26 3 -8 -12 -6 5 8 85 4 25
-3 21 -19 -10z"/>
<path d="M1972 1865 c0 -30 3 -53 7 -51 7 5 6 95 -2 103 -2 2 -5 -21 -5 -52z"/>
<path d="M1896 1869 c17 -34 18 -42 2 -33 -9 5 -8 2 1 -10 9 -10 18 -13 23 -8
14 14 5 58 -11 54 -8 -2 -11 3 -8 11 3 7 -1 14 -8 14 -11 0 -11 -5 1 -28z"/>
<path d="M1134 1851 c3 -22 2 -42 -2 -45 -4 -2 -9 -22 -10 -44 -2 -28 1 -39
12 -39 11 0 12 6 5 24 -12 31 -11 36 1 28 6 -4 10 17 10 54 0 39 -4 61 -11 61
-8 0 -9 -13 -5 -39z"/>
<path d="M1172 1714 c-1 -127 2 -180 12 -204 7 -18 16 -28 20 -22 3 6 2 13 -4
17 -5 3 -10 11 -10 16 0 6 5 7 10 4 6 -3 10 3 10 14 0 12 -7 21 -15 21 -12 0
-15 27 -18 163 l-3 162 -2 -171z"/>
<path d="M1300 1836 c0 -26 -5 -46 -12 -49 -8 -3 -6 -6 5 -6 14 -1 17 8 17 49
0 28 -2 50 -5 50 -3 0 -5 -20 -5 -44z"/>
<path d="M1411 1814 c0 -32 4 -68 9 -79 5 -12 7 9 3 55 -7 92 -13 104 -12 24z"/>
<path d="M904 1826 c-16 -32 -15 -35 4 -54 17 -17 21 -18 26 -6 4 10 2 12 -6
8 -8 -5 -9 -2 -5 10 4 9 3 14 -2 11 -5 -3 -12 -1 -16 5 -3 5 -2 10 3 10 5 0
14 11 20 25 7 16 8 25 2 25 -6 0 -18 -15 -26 -34z"/>
<path d="M1727 1795 c3 -38 9 -74 14 -79 10 -11 -1 101 -12 129 -5 11 -6 -10
-2 -50z"/>
<path d="M96 1808 c-8 -32 -7 -78 2 -78 4 0 7 23 8 50 1 55 -1 61 -10 28z"/>
<path d="M2019 1801 c-13 -11 -21 -22 -17 -26 10 -10 41 10 44 29 3 20 1 20
-27 -3z"/>
<path d="M2193 1675 c0 -38 2 -53 4 -32 2 20 2 52 0 70 -2 17 -4 1 -4 -38z"/>
<path d="M1500 1697 c0 -20 5 -27 19 -27 11 0 22 -6 24 -12 3 -7 6 -3 6 10 1
13 -3 21 -8 17 -5 -3 -17 5 -25 17 l-16 22 0 -27z"/>
<path d="M1135 1668 c4 -26 3 -29 -4 -13 -9 19 -10 19 -10 -2 -1 -14 5 -23 14
-23 8 0 15 9 15 19 0 11 3 26 6 35 4 10 1 16 -10 16 -12 0 -14 -7 -11 -32z"/>
<path d="M1460 1633 c0 -60 1 -65 14 -47 8 10 11 21 7 24 -10 7 -9 60 1 60 4
0 5 7 2 15 -13 34 -24 11 -24 -52z"/>
<path d="M1007 1683 c-4 -3 -7 -58 -7 -121 0 -64 2 -113 4 -111 5 5 18 239 13
239 -2 0 -7 -3 -10 -7z"/>
<path d="M1424 1575 c0 -49 1 -71 3 -48 2 23 2 64 0 90 -2 26 -3 8 -3 -42z"/>
<path d="M1230 1638 c0 -4 18 -8 40 -8 22 0 40 4 40 8 0 5 -18 9 -40 9 -22 0
-40 -4 -40 -9z"/>
<path d="M1890 1578 c-3 -37 -1 -63 3 -59 4 4 7 35 5 67 l-3 59 -5 -67z"/>
<path d="M1130 1608 c0 -27 26 -98 40 -110 12 -11 12 -10 3 2 -13 18 -28 79
-24 103 1 9 -3 17 -8 17 -6 0 -11 -6 -11 -12z"/>
<path d="M1255 1610 c-28 -7 -27 -8 13 -9 23 0 42 4 42 9 0 11 -11 11 -55 0z"/>
<path d="M1401 1524 c1 -54 5 -130 9 -169 5 -43 6 -7 3 95 -6 181 -14 232 -12
74z"/>
<path d="M949 1593 c-1 -10 -1 -22 0 -27 1 -4 -4 -14 -10 -22 -7 -9 -8 -14 -1
-14 5 0 8 -9 5 -20 -3 -11 -9 -17 -14 -14 -5 3 -9 1 -9 -5 0 -5 -10 -12 -22
-14 -13 -2 -5 -5 18 -6 l41 -1 2 70 c1 39 -1 70 -4 70 -3 0 -6 -8 -6 -17z"/>
<path d="M1500 1588 c0 -13 4 -18 8 -13 4 6 13 10 21 10 8 0 16 6 19 13 2 7
-6 12 -22 12 -20 0 -26 -5 -26 -22z"/>
<path d="M1446 1505 c2 -44 4 -108 3 -142 0 -33 4 -64 9 -67 5 -3 10 25 10 62
1 37 5 95 8 130 4 43 3 62 -5 62 -6 0 -12 -20 -13 -47 -1 -45 -2 -44 -8 17 -7
62 -7 61 -4 -15z"/>
<path d="M777 1546 c-6 -14 10 -36 25 -36 4 0 8 9 8 19 0 22 -26 35 -33 17z"/>
<path d="M1100 1527 c0 -14 6 -24 15 -24 16 0 18 7 9 31 -9 24 -24 19 -24 -7z"/>
<path d="M1500 1511 c0 -22 -3 -46 -6 -55 -3 -9 -1 -16 5 -16 6 0 11 7 11 15
0 8 5 15 10 15 6 0 10 -10 10 -22 0 -37 7 -15 14 45 7 56 7 57 -18 57 -24 0
-26 -4 -26 -39z"/>
<path d="M1593 1533 c36 -4 38 -6 32 -33 -3 -15 -2 -31 3 -34 10 -6 22 60 13
69 -2 3 -23 4 -45 3 l-41 -1 38 -4z"/>
<path d="M1298 1493 c-1 -16 -2 -42 -3 -59 -3 -50 -13 -67 -35 -61 -11 3 -20
1 -20 -4 0 -5 16 -9 35 -9 l35 0 0 80 c0 76 -8 111 -12 53z"/>
<path d="M1081 1457 c-1 -21 -6 -47 -11 -58 -12 -21 -1 -26 18 -7 14 14 15 54
2 83 -7 16 -9 12 -9 -18z"/>
<path d="M1746 1464 c-3 -9 -7 -32 -7 -52 l-1 -37 -8 30 c-4 17 -5 -8 -2 -55
2 -47 9 -91 15 -98 5 -7 11 -56 12 -110 1 -79 6 -104 24 -137 12 -22 19 -31
15 -20 -14 43 -16 65 -5 65 7 0 11 15 10 38 -2 21 0 43 4 49 5 7 0 9 -13 6
-29 -8 -25 19 5 33 20 10 25 9 28 -5 3 -9 5 -4 6 12 1 31 1 30 -33 17 -26 -9
-26 -9 -26 38 0 31 -3 42 -9 33 -7 -11 -10 -9 -16 9 -4 12 -3 25 2 29 7 4 13
171 7 171 -1 0 -5 -7 -8 -16z"/>
<path d="M1160 1459 c0 -5 -5 -7 -11 -3 -8 4 -8 0 0 -15 11 -19 8 -25 -11 -22
-5 0 -8 -8 -8 -19 0 -11 5 -20 10 -20 14 0 12 -37 -2 -43 -8 -4 -7 -6 3 -6 13
-1 18 10 22 42 3 23 8 54 12 70 5 17 3 27 -4 27 -6 0 -11 -5 -11 -11z"/>
<path d="M1612 1422 c-7 -17 -9 -38 -3 -57 7 -27 8 -25 13 25 3 30 5 56 4 57
-1 1 -7 -10 -14 -25z"/>
<path d="M12 1178 c2 -304 7 -291 10 27 l3 220 80 6 80 5 -87 2 -88 2 2 -262z"/>
<path d="M253 1423 c32 -2 81 -2 110 0 29 2 3 3 -58 3 -60 0 -84 -1 -52 -3z"/>
<path d="M429 1417 c4 -4 61 -6 127 -5 l119 3 -127 5 c-70 3 -124 1 -119 -3z"/>
<path d="M1490 1341 c0 -84 1 -91 20 -91 12 0 20 7 21 18 0 9 2 28 3 41 3 21
1 22 -9 7 -16 -22 -25 -20 -25 4 0 13 7 20 20 20 14 0 20 6 19 23 -1 16 -2 18
-6 5 -2 -10 -11 -18 -20 -18 -12 0 -14 8 -10 35 3 19 1 37 -4 40 -5 4 -9 -31
-9 -84z"/>
<path d="M1371 1368 c1 -55 5 -50 11 15 2 20 0 37 -4 37 -4 0 -7 -24 -7 -52z"/>
<path d="M999 1408 c-5 -25 -9 -111 -5 -107 11 11 23 99 15 105 -5 3 -9 4 -10
2z"/>
<path d="M1908 1373 c23 -2 59 -2 80 0 20 2 1 4 -43 4 -44 0 -61 -2 -37 -4z"/>
<path d="M2227 1284 c-4 -55 -16 -245 -27 -424 -11 -179 -22 -359 -24 -400 -3
-41 -7 -138 -10 -215 -4 -117 -3 -125 3 -50 5 50 12 144 15 210 4 66 9 147 11
180 3 33 10 141 15 240 6 99 12 194 14 210 2 17 7 86 10 155 4 69 9 137 12
151 l5 26 202 -3 c406 -8 502 -12 520 -19 12 -5 17 -2 17 9 0 14 -24 16 -212
16 -117 0 -288 3 -379 7 l-166 6 -6 -99z"/>
<path d="M1177 1346 c-3 -7 -8 -34 -12 -58 -7 -43 -6 -46 19 -50 14 -3 26 -1
26 3 0 5 -9 9 -20 9 -11 0 -20 7 -20 15 0 8 5 15 11 15 5 0 7 -6 3 -12 -4 -7
2 -4 13 7 20 20 20 20 0 23 -15 3 -18 9 -13 33 6 30 2 39 -7 15z"/>
<path d="M1390 1310 c0 -22 -4 -28 -15 -24 -9 4 -15 0 -15 -10 0 -9 6 -16 14
-16 8 0 17 -6 19 -12 3 -7 6 11 6 40 1 28 -1 52 -4 52 -3 0 -5 -13 -5 -30z"/>
<path d="M1790 1275 c-17 -20 -3 -39 16 -21 16 16 19 36 5 36 -5 0 -14 -7 -21
-15z"/>
<path d="M1413 1210 c0 -36 2 -50 4 -32 2 17 2 47 0 65 -2 17 -4 3 -4 -33z"/>
<path d="M1706 1254 c-8 -22 -8 -54 2 -54 4 0 14 5 22 10 11 7 12 10 2 10 -9
0 -11 7 -7 19 7 23 -10 37 -19 15z"/>
<path d="M1215 1212 c6 -5 27 -15 48 -20 29 -8 37 -8 37 2 0 8 -12 13 -27 13
-16 0 -37 3 -48 8 -14 5 -17 5 -10 -3z"/>
<path d="M1484 1183 c-4 -20 -2 -78 5 -129 6 -51 11 -115 11 -143 0 -54 10
-70 30 -46 10 12 9 15 -4 15 -13 0 -16 10 -16 49 0 26 -3 69 -6 95 -6 38 -4
46 10 46 12 0 16 9 16 36 0 31 -3 35 -20 29 -16 -5 -20 -2 -20 14 0 14 6 21
19 21 12 0 20 9 23 25 4 21 1 25 -18 25 -19 0 -24 -7 -30 -37z"/>
<path d="M1160 1180 c-1 -8 -2 -18 -1 -22 0 -4 -4 -31 -9 -60 -5 -29 -11 -66
-14 -83 -2 -16 -7 -39 -11 -50 -6 -19 -6 -19 8 -2 8 10 21 15 31 11 11 -4 16
-1 16 10 0 10 -6 13 -15 10 -17 -7 -20 20 -9 75 5 21 12 30 23 29 11 -2 17 6
19 30 2 23 -1 32 -12 32 -8 0 -17 8 -19 18 -4 13 -5 13 -7 2z"/>
<path d="M1686 1163 c1 -16 2 -43 3 -60 0 -18 5 -33 10 -33 4 0 5 18 1 41 -4
22 -5 49 -3 60 3 10 1 19 -4 19 -5 0 -8 -12 -7 -27z"/>
<path d="M1110 1152 c0 -15 -7 -58 -15 -96 -11 -54 -12 -72 -3 -77 22 -14 30
3 23 53 -5 32 -4 48 2 45 6 -4 9 10 7 33 -1 22 2 40 7 40 15 0 10 17 -6 24
-11 4 -15 -2 -15 -22z"/>
<path d="M1433 1117 c0 -45 3 -64 9 -55 6 8 8 -9 4 -47 -3 -45 -2 -52 4 -30 7
23 8 14 5 -35 -2 -45 -1 -56 5 -35 l8 30 1 -32 c1 -20 -4 -33 -11 -33 -10 0
-10 -2 -1 -8 7 -5 14 -20 15 -35 1 -15 6 -27 10 -27 4 0 5 28 3 63 -2 34 -4
62 -5 62 -3 0 -11 72 -11 92 1 12 -4 34 -9 48 -7 18 -7 33 0 46 8 15 7 19 -4
19 -8 0 -16 10 -19 23 -2 12 -4 -9 -4 -46z"/>
<path d="M1391 1147 c0 -17 -11 -37 -23 -48 l-23 -18 23 -1 c16 0 22 -6 23
-22 0 -22 1 -22 8 -3 5 12 4 25 -2 33 -7 9 -7 16 -1 20 5 4 7 20 3 37 l-7 30
-1 -28z"/>
<path d="M1608 1148 c-3 -7 -17 -12 -32 -10 -36 3 -24 -14 14 -20 26 -4 30 -1
30 19 0 25 -6 30 -12 11z"/>
<path d="M880 1143 c1 -5 9 -24 20 -43 19 -35 19 -35 20 -7 0 15 -4 27 -10 27
-5 0 -10 7 -10 15 0 8 -4 15 -10 15 -5 0 -10 -3 -10 -7z"/>
<path d="M1724 1058 c8 -93 10 -98 37 -98 20 0 20 1 -2 31 -17 24 -22 45 -22
90 0 34 -4 59 -10 59 -6 0 -7 -29 -3 -82z"/>
<path d="M860 1076 c5 -13 6 -33 3 -44 -7 -29 40 -118 58 -107 7 5 -5 42 -31
95 -4 9 -11 30 -15 48 -3 18 -11 32 -16 32 -5 0 -5 -10 1 -24z"/>
<path d="M1270 1046 c0 -14 -4 -36 -10 -50 -5 -15 -5 -28 0 -31 9 -6 15 10 26
68 4 24 2 37 -5 37 -6 0 -11 -11 -11 -24z"/>
<path d="M1407 1040 c-4 -14 -6 -38 -6 -55 1 -24 3 -21 10 15 10 49 7 80 -4
40z"/>
<path d="M1035 1040 c-4 -7 -1 -16 6 -21 13 -8 6 -13 -14 -10 -4 1 -2 -8 5
-18 11 -18 13 -18 24 -3 9 12 9 22 2 37 -15 28 -15 28 -23 15z"/>
<path d="M1806 1015 c3 -16 7 -36 10 -42 2 -7 -1 -13 -6 -13 -5 0 -6 -15 -3
-34 5 -32 4 -33 -23 -29 -27 5 -28 4 -11 -9 17 -13 17 -15 3 -27 -9 -8 -16
-19 -16 -26 0 -13 -64 -43 -130 -63 -19 -6 -79 -13 -132 -16 l-98 -5 -1 57 c0
31 -5 66 -10 77 -8 16 -8 14 -5 -10 3 -16 0 -54 -7 -83 -9 -40 -15 -51 -27
-46 -8 3 -49 14 -90 25 -109 28 -219 87 -250 134 -24 36 -25 36 -31 14 -24
-84 0 -586 31 -656 16 -36 18 -60 14 -153 -4 -91 -3 -110 9 -110 11 0 14 14
12 62 -1 35 1 87 5 116 5 38 3 57 -6 66 -20 21 -31 106 -39 334 -4 99 -3 132
6 127 6 -4 3 5 -7 20 -15 23 -15 28 -3 36 12 8 12 10 -1 18 -12 8 -10 12 10
20 18 7 20 10 8 10 -22 1 -23 14 -3 31 11 9 20 8 43 -9 16 -11 42 -25 57 -31
15 -6 29 -19 32 -30 4 -15 9 -18 18 -10 10 8 31 5 77 -11 49 -16 86 -21 168
-20 108 1 177 6 220 17 14 3 36 8 50 10 14 3 34 7 44 11 17 5 18 1 13 -26 -4
-18 -10 -74 -13 -126 -4 -52 -10 -95 -15 -95 -4 0 -5 -13 -3 -30 4 -25 2 -29
-12 -23 -13 5 -15 2 -10 -14 3 -11 -3 -50 -14 -87 -15 -48 -20 -85 -17 -129 5
-66 0 -90 -14 -81 -5 3 -10 -11 -10 -30 -4 -118 -4 -121 11 -121 11 0 16 16
20 60 3 33 9 66 13 73 5 7 8 38 8 70 0 57 30 207 49 242 14 27 43 248 44 342
1 36 6 51 26 68 34 29 45 132 18 164 -18 21 -18 21 -12 -9z"/>
<path d="M1300 988 c0 -14 -7 -28 -15 -32 -19 -7 -20 -26 0 -26 15 0 33 65 21
77 -3 4 -6 -5 -6 -19z"/>
<path d="M1362 995 c0 -11 3 -31 7 -45 7 -24 7 -24 14 9 4 19 5 36 2 39 -3 3
-5 -3 -6 -14 -1 -15 -3 -13 -9 6 -6 20 -8 21 -8 5z"/>
<path d="M1521 993 c0 -5 7 -24 14 -43 14 -37 20 -16 9 28 -6 20 -25 32 -23
15z"/>
<path d="M1415 925 c-4 -36 -5 -68 -3 -71 3 -2 8 25 12 62 4 37 5 69 2 71 -2
3 -7 -25 -11 -62z"/>
<path d="M1332 949 c-8 -13 -10 -25 -4 -32 5 -7 14 -25 21 -42 8 -22 10 -24 6
-5 -3 14 -8 39 -11 55 l-5 30 15 -30 c14 -26 15 -27 10 -5 -11 45 -18 51 -32
29z"/>
<path d="M1050 935 c0 -8 7 -15 16 -15 9 0 13 -5 9 -12 -4 -7 1 -4 9 6 13 16
13 22 3 28 -19 12 -37 9 -37 -7z"/>
<path d="M1345 587 c-14 -16 -47 -97 -50 -122 -1 -11 -5 -27 -8 -35 -7 -17
-16 -74 -22 -137 -3 -23 -7 -59 -9 -80 -2 -21 -8 -77 -11 -126 -6 -74 -5 -87
8 -87 15 0 15 0 47 286 5 50 19 126 30 169 11 43 20 89 20 102 0 12 4 23 8 23
10 0 30 -186 38 -345 9 -194 14 -235 30 -235 12 0 14 15 10 83 -3 45 -8 143
-12 217 -3 74 -8 141 -9 150 -2 8 -7 36 -10 62 -8 52 -42 95 -60 75z"/>
<path d="M951 60 l2 -65 7 55 c4 30 3 59 -1 65 -5 5 -8 -19 -8 -55z"/>
</g>
</svg>
